<svg width="780.9051025390625px" height="192.79999999999998px" xmlns="http://www.w3.org/2000/svg" viewBox="-140.45255126953123 -21.39999999999999 780.9051025390625 192.79999999999998" style="background: rgba(255, 255, 255, 0);" preserveAspectRatio="xMidYMid"><defs><filter id="editing-hole" x="-100%" y="-100%" width="300%" height="300%"><feFlood flood-color="#ffffff" result="black"></feFlood><feMorphology operator="dilate" radius="2" in="SourceGraphic" result="erode"></feMorphology><feGaussianBlur in="erode" stdDeviation="4" result="blur"></feGaussianBlur><feOffset in="blur" dx="2" dy="2" result="offset"></feOffset><feComposite operator="atop" in="offset" in2="black" result="merge"></feComposite><feComposite operator="in" in="merge" in2="SourceGraphic" result="inner-shadow"></feComposite></filter></defs><g filter="url(#editing-hole)"><g transform="translate(-27.13378095626831, 111.29500579833984)"><path d="M18.15 0L-1.48-66.97L10.01-66.97L23.47-19.23L26.48-6.66L29.54-19.23L43.25-66.97L54.64-66.97L34.67 0L18.15 0ZM65.79-58.93L65.79-58.93L65.79-58.93Q64.41-58.93 63.20-59.43L63.20-59.43L63.20-59.43Q61.99-59.92 61.08-60.76L61.08-60.76L61.08-60.76Q60.17-61.60 59.62-62.71L59.62-62.71L59.62-62.71Q59.08-63.82 59.08-65.10L59.08-65.10L59.08-65.10Q59.08-66.43 59.62-67.56L59.62-67.56L59.62-67.56Q60.17-68.70 61.08-69.54L61.08-69.54L61.08-69.54Q61.99-70.37 63.20-70.84L63.20-70.84L63.20-70.84Q64.41-71.31 65.79-71.31L65.79-71.31L65.79-71.31Q67.17-71.31 68.40-70.84L68.40-70.84L68.40-70.84Q69.63-70.37 70.55-69.54L70.55-69.54L70.55-69.54Q71.46-68.70 72.00-67.56L72.00-67.56L72.00-67.56Q72.54-66.43 72.54-65.10L72.54-65.10L72.54-65.10Q72.54-63.82 72.00-62.71L72.00-62.71L72.00-62.71Q71.46-61.60 70.55-60.76L70.55-60.76L70.55-60.76Q69.63-59.92 68.40-59.43L68.40-59.43L68.40-59.43Q67.17-58.93 65.79-58.93ZM60.12-8.48L60.12-50.40L70.37-50.40L70.37-8.29L73.28-6.21L73.28 0L70.47 0L70.37-0.10L70.37 0L70.37 0Q65.49 0 62.80-1.97L62.80-1.97L62.80-1.97Q60.12-3.95 60.12-8.48L60.12-8.48ZM83.10-2.27L83.10-2.27L83.10-2.27Q83.10-3.40 83.30-4.73L83.30-4.73L83.30-4.73Q83.44-5.87 83.76-7.32L83.76-7.32L83.76-7.32Q84.08-8.78 84.73-10.36L84.73-10.36L84.73-10.36Q86.90-9.52 89.26-8.88L89.26-8.88L89.26-8.88Q91.28-8.33 93.65-7.87L93.65-7.87L93.65-7.87Q96.02-7.40 98.34-7.40L98.34-7.40L98.34-7.40Q100.41-7.40 102.18-7.55L102.18-7.55L102.18-7.55Q103.96-7.69 105.27-8.36L105.27-8.36L105.27-8.36Q106.57-9.02 107.31-10.38L107.31-10.38L107.31-10.38Q108.05-11.74 108.05-14.15L108.05-14.15L108.05-14.15Q108.05-17.06 106.25-18.74L106.25-18.74L106.25-18.74Q104.45-20.42 100.01-21.26L100.01-21.26L100.01-21.26Q95.43-22.14 92.30-23.62L92.30-23.62L92.30-23.62Q89.16-25.10 87.22-27.05L87.22-27.05L87.22-27.05Q85.27-29.00 84.41-31.41L84.41-31.41L84.41-31.41Q83.54-33.83 83.54-36.59L83.54-36.59L83.54-36.59Q83.54-40.74 84.87-43.65L84.87-43.65L84.87-43.65Q86.21-46.55 88.74-48.35L88.74-48.35L88.74-48.35Q91.28-50.15 95.06-50.97L95.06-50.97L95.06-50.97Q98.83-51.78 103.71-51.78L103.71-51.78L103.71-51.78Q107.12-51.78 109.75-51.31L109.75-51.31L109.75-51.31Q112.39-50.85 114.17-50.30L114.17-50.30L114.17-50.30Q116.24-49.66 117.77-48.82L117.77-48.82L117.77-48.82Q117.62-47.74 117.23-46.46L117.23-46.46L117.23-46.46Q116.88-45.37 116.31-43.99L116.31-43.99L116.31-43.99Q115.75-42.61 114.81-41.18L114.81-41.18L114.81-41.18Q113.48-41.97 111.75-42.56L111.75-42.56L111.75-42.56Q110.27-43.10 108.20-43.52L108.20-43.52L108.20-43.52Q106.13-43.94 103.47-43.94L103.47-43.94L103.47-43.94Q101.39-43.94 99.64-43.74L99.64-43.74L99.64-43.74Q97.89-43.55 96.64-42.86L96.64-42.86L96.64-42.86Q95.38-42.17 94.69-40.76L94.69-40.76L94.69-40.76Q94.00-39.35 94.00-36.94L94.00-36.94L94.00-36.94Q94.00-35.75 94.32-34.79L94.32-34.79L94.32-34.79Q94.64-33.83 95.60-33.04L95.60-33.04L95.60-33.04Q96.56-32.25 98.31-31.59L98.31-31.59L98.31-31.59Q100.06-30.92 102.97-30.28L102.97-30.28L102.97-30.28Q107.51-29.29 110.54-28.01L110.54-28.01L110.54-28.01Q113.58-26.73 115.38-24.90L115.38-24.90L115.38-24.90Q117.18-23.08 117.94-20.64L117.94-20.64L117.94-20.64Q118.70-18.20 118.70-14.84L118.70-14.84L118.70-14.84Q118.70-11.24 117.57-8.33L117.57-8.33L117.57-8.33Q116.44-5.42 114.02-3.35L114.02-3.35L114.02-3.35Q111.60-1.28 107.81-0.15L107.81-0.15L107.81-0.15Q104.01 0.99 98.63 0.99L98.63 0.99L98.63 0.99Q95.18 0.99 92.34 0.49L92.34 0.49L92.34 0.49Q89.51 0 87.44-0.64L87.44-0.64L87.44-0.64Q85.02-1.33 83.10-2.27ZM129.31-16.52L129.31-50.40L139.86-50.40L139.86-17.46L139.86-17.46Q139.86-12.18 141.93-9.64L141.93-9.64L141.93-9.64Q144.00-7.10 148.89-7.10L148.89-7.10L148.89-7.10Q151.25-7.10 153.18-7.50L153.18-7.50L153.18-7.50Q155.10-7.89 156.53-8.43L156.53-8.43L156.53-8.43Q158.16-9.02 159.44-9.81L159.44-9.81L159.44-50.40L170.04-50.40L170.04-8.14L174.43-3.11L174.43 0L164.91 0L161.02-3.90L159.14-3.90L159.14-3.90Q158.75-3.60 157.66-2.81L157.66-2.81L157.66-2.81Q156.58-2.02 154.88-1.16L154.88-1.16L154.88-1.16Q153.18-0.30 150.96 0.35L150.96 0.35L150.96 0.35Q148.74 0.99 146.12 0.99L146.12 0.99L146.12 0.99Q141.98 0.99 138.83-0.25L138.83-0.25L138.83-0.25Q135.67-1.48 133.55-3.77L133.55-3.77L133.55-3.77Q131.43-6.07 130.37-9.30L130.37-9.30L130.37-9.30Q129.31-12.53 129.31-16.52L129.31-16.52ZM180.99-14.40L180.99-14.40L180.99-14.40Q180.99-18.49 182.17-21.35L182.17-21.35L182.17-21.35Q183.36-24.21 185.65-26.04L185.65-26.04L185.65-26.04Q187.94-27.86 191.22-28.78L191.22-28.78L191.22-28.78Q194.50-29.69 198.75-29.94L198.75-29.94L209.74-30.53L209.74-34.47L209.74-34.47Q209.74-37.14 209.27-38.86L209.27-38.86L209.27-38.86Q208.81-40.59 207.72-41.62L207.72-41.62L207.72-41.62Q206.64-42.66 204.84-43.08L204.84-43.08L204.84-43.08Q203.04-43.50 200.37-43.50L200.37-43.50L200.37-43.50Q197.71-43.50 195.32-42.91L195.32-42.91L195.32-42.91Q192.93-42.31 191.15-41.62L191.15-41.62L191.15-41.62Q189.03-40.78 187.25-39.75L187.25-39.75L187.25-39.75Q186.17-41.28 185.53-42.68L185.53-42.68L185.53-42.68Q184.89-44.09 184.54-45.22L184.54-45.22L184.54-45.22Q184.10-46.51 183.95-47.69L183.95-47.69L183.95-47.69Q186.32-48.87 189.03-49.76L189.03-49.76L189.03-49.76Q191.40-50.55 194.48-51.19L194.48-51.19L194.48-51.19Q197.56-51.83 200.96-51.83L200.96-51.83L200.96-51.83Q206.59-51.83 210.29-50.85L210.29-50.85L210.29-50.85Q213.98-49.86 216.18-47.86L216.18-47.86L216.18-47.86Q218.37-45.86 219.24-42.83L219.24-42.83L219.24-42.83Q220.10-39.80 220.10-35.66L220.10-35.66L220.10-8.14L224.24-3.11L224.24 0L215.12 0L211.32-4.39L209.55-4.39L209.55-4.39Q209.30-4.14 208.24-3.28L208.24-3.28L208.24-3.28Q207.18-2.42 205.53-1.45L205.53-1.45L205.53-1.45Q203.87-0.49 201.78 0.25L201.78 0.25L201.78 0.25Q199.68 0.99 197.31 0.99L197.31 0.99L197.31 0.99Q193.62 0.99 190.61-0.12L190.61-0.12L190.61-0.12Q187.60-1.23 185.45-3.28L185.45-3.28L185.45-3.28Q183.31-5.33 182.15-8.16L182.15-8.16L182.15-8.16Q180.99-11.00 180.99-14.40ZM191.74-15.29L191.74-15.29L191.74-15.29Q191.74-13.02 192.38-11.52L192.38-11.52L192.38-11.52Q193.02-10.01 194.18-9.12L194.18-9.12L194.18-9.12Q195.34-8.24 196.99-7.89L196.99-7.89L196.99-7.89Q198.65-7.55 200.67-7.55L200.67-7.55L200.67-7.55Q202.54-7.55 204.19-8.01L204.19-8.01L204.19-8.01Q205.85-8.48 207.08-9.07L207.08-9.07L207.08-9.07Q208.51-9.72 209.74-10.60L209.74-10.60L209.74-23.87L199.83-23.23L199.83-23.23Q197.51-23.08 195.96-22.44L195.96-22.44L195.96-22.44Q194.41-21.80 193.47-20.76L193.47-20.76L193.47-20.76Q192.53-19.73 192.14-18.32L192.14-18.32L192.14-18.32Q191.74-16.92 191.74-15.29ZM232.87-8.48L232.87-70.97L243.08-70.97L243.08-8.29L245.99-6.21L245.99 0L243.18 0L243.08-0.10L243.08 0L243.08 0Q238.20 0 235.54-1.97L235.54-1.97L235.54-1.97Q232.87-3.95 232.87-8.48L232.87-8.48ZM284.11-2.42L284.11-2.42L284.11-2.42Q284.21-3.55 284.46-4.98L284.46-4.98L284.46-4.98Q284.70-6.16 285.12-7.82L285.12-7.82L285.12-7.82Q285.54-9.47 286.38-11.39L286.38-11.39L286.38-11.39Q289.04-10.50 291.81-9.81L291.81-9.81L291.81-9.81Q294.17-9.22 296.98-8.73L296.98-8.73L296.98-8.73Q299.79-8.24 302.36-8.24L302.36-8.24L302.36-8.24Q306.25-8.24 308.89-8.83L308.89-8.83L308.89-8.83Q311.53-9.42 313.13-10.58L313.13-10.58L313.13-10.58Q314.74-11.74 315.43-13.49L315.43-13.49L315.43-13.49Q316.12-15.24 316.12-17.56L316.12-17.56L316.12-17.56Q316.12-20.17 315.40-22.00L315.40-22.00L315.40-22.00Q314.69-23.82 313.23-25.15L313.23-25.15L313.23-25.15Q311.78-26.48 309.51-27.42L309.51-27.42L309.51-27.42Q307.24-28.36 304.13-29.24L304.13-29.24L304.13-29.24Q298.71-30.72 294.96-32.47L294.96-32.47L294.96-32.47Q291.21-34.23 288.87-36.49L288.87-36.49L288.87-36.49Q286.53-38.76 285.49-41.65L285.49-41.65L285.49-41.65Q284.46-44.53 284.46-48.23L284.46-48.23L284.46-48.23Q284.46-53.56 286.11-57.35L286.11-57.35L286.11-57.35Q287.76-61.15 290.79-63.57L290.79-63.57L290.79-63.57Q293.83-65.99 298.14-67.12L298.14-67.12L298.14-67.12Q302.46-68.25 307.78-68.25L307.78-68.25L307.78-68.25Q311.88-68.25 314.96-67.61L314.96-67.61L314.96-67.61Q318.04-66.97 320.16-66.23L320.16-66.23L320.16-66.23Q322.63-65.34 324.45-64.21L324.45-64.21L324.45-64.21Q324.30-63.08 323.86-61.74L323.86-61.74L323.86-61.74Q323.47-60.61 322.78-59.08L322.78-59.08L322.78-59.08Q322.09-57.55 320.85-55.78L320.85-55.78L320.85-55.78Q319.37-56.76 317.40-57.55L317.40-57.55L317.40-57.55Q315.67-58.24 313.23-58.81L313.23-58.81L313.23-58.81Q310.79-59.38 307.59-59.38L307.59-59.38L307.59-59.38Q304.08-59.38 301.69-58.83L301.69-58.83L301.69-58.83Q299.30-58.29 297.77-57.13L297.77-57.13L297.77-57.13Q296.24-55.97 295.58-54.22L295.58-54.22L295.58-54.22Q294.91-52.47 294.91-50.06L294.91-50.06L294.91-50.06Q294.91-47.34 295.60-45.54L295.60-45.54L295.60-45.54Q296.29-43.74 297.82-42.49L297.82-42.49L297.82-42.49Q299.35-41.23 301.79-40.29L301.79-40.29L301.79-40.29Q304.23-39.35 307.69-38.37L307.69-38.37L307.69-38.37Q312.86-36.94 316.51-35.31L316.51-35.31L316.51-35.31Q320.16-33.68 322.46-31.51L322.46-31.51L322.46-31.51Q324.75-29.34 325.81-26.36L325.81-26.36L325.81-26.36Q326.87-23.38 326.87-19.18L326.87-19.18L326.87-19.18Q326.87-14.01 325.54-10.18L325.54-10.18L325.54-10.18Q324.21-6.36 321.30-3.80L321.30-3.80L321.30-3.80Q318.39-1.23 313.80 0.02L313.80 0.02L313.80 0.02Q309.21 1.28 302.75 1.28L302.75 1.28L302.75 1.28Q298.91 1.28 295.50 0.72L295.50 0.72L295.50 0.72Q292.10 0.15 289.59-0.54L289.59-0.54L289.59-0.54Q286.58-1.38 284.11-2.42ZM341.12-14.10L341.12-42.76L334.66-42.76L334.66-42.76Q334.61-43.30 334.56-43.94L334.56-43.94L334.56-43.94Q334.51-44.48 334.49-45.22L334.49-45.22L334.49-45.22Q334.46-45.96 334.46-46.85L334.46-46.85L334.46-46.85Q334.46-47.74 334.51-48.50L334.51-48.50L334.51-48.50Q334.56-49.27 334.66-50.40L334.66-50.40L341.12-50.40L341.12-58.24L346.79-64.65L351.18-64.65L351.18-50.40L365.14-50.40L365.14-50.40Q365.24-49.91 365.31-49.22L365.31-49.22L365.31-49.22Q365.39-48.53 365.39-47.89L365.39-47.89L365.39-47.89Q365.39-46.75 365.16-45.81L365.16-45.81L365.16-45.81Q364.94-44.88 364.69-44.19L364.69-44.19L364.69-44.19Q364.40-43.40 364.00-42.76L364.00-42.76L351.18-42.76L351.18-14.15L351.18-14.15Q351.18-10.55 352.39-8.93L352.39-8.93L352.39-8.93Q353.60-7.30 356.26-7.30L356.26-7.30L356.26-7.30Q357.40-7.30 358.65-7.57L358.65-7.57L358.65-7.57Q359.91-7.84 361.05-8.24L361.05-8.24L361.05-8.24Q362.33-8.68 363.66-9.22L363.66-9.22L363.66-9.22Q364.65-7.94 365.21-6.71L365.21-6.71L365.21-6.71Q365.78-5.47 366.03-4.49L366.03-4.49L366.03-4.49Q366.32-3.35 366.37-2.37L366.37-2.37L366.37-2.37Q364.99-1.43 363.26-0.69L363.26-0.69L363.26-0.69Q361.74-0.05 359.62 0.47L359.62 0.47L359.62 0.47Q357.49 0.99 354.73 0.99L354.73 0.99L354.73 0.99Q350.89 0.99 348.30 0.02L348.30 0.02L348.30 0.02Q345.71-0.94 344.11-2.84L344.11-2.84L344.11-2.84Q342.50-4.73 341.81-7.57L341.81-7.57L341.81-7.57Q341.12-10.41 341.12-14.10L341.12-14.10ZM374.31-16.52L374.31-50.40L384.87-50.40L384.87-17.46L384.87-17.46Q384.87-12.18 386.94-9.64L386.94-9.64L386.94-9.64Q389.01-7.10 393.89-7.10L393.89-7.10L393.89-7.10Q396.26-7.10 398.18-7.50L398.18-7.50L398.18-7.50Q400.10-7.89 401.53-8.43L401.53-8.43L401.53-8.43Q403.16-9.02 404.44-9.81L404.44-9.81L404.44-50.40L415.05-50.40L415.05-8.14L419.44-3.11L419.44 0L409.92 0L406.02-3.90L404.15-3.90L404.15-3.90Q403.75-3.60 402.67-2.81L402.67-2.81L402.67-2.81Q401.58-2.02 399.88-1.16L399.88-1.16L399.88-1.16Q398.18-0.30 395.96 0.35L395.96 0.35L395.96 0.35Q393.74 0.99 391.13 0.99L391.13 0.99L391.13 0.99Q386.99 0.99 383.83-0.25L383.83-0.25L383.83-0.25Q380.67-1.48 378.55-3.77L378.55-3.77L378.55-3.77Q376.43-6.07 375.37-9.30L375.37-9.30L375.37-9.30Q374.31-12.53 374.31-16.52L374.31-16.52ZM426.73-24.31L426.73-24.31L426.73-24.31Q426.73-31.37 428.71-36.54L428.71-36.54L428.71-36.54Q430.68-41.72 434.06-45.12L434.06-45.12L434.06-45.12Q437.44-48.53 441.88-50.18L441.88-50.18L441.88-50.18Q446.31-51.83 451.29-51.83L451.29-51.83L451.29-51.83Q453.17-51.83 454.65-51.66L454.65-51.66L454.65-51.66Q456.13-51.49 457.16-51.24L457.16-51.24L457.16-51.24Q458.40-50.99 459.33-50.65L459.33-50.65L459.33-70.97L469.84-70.97L469.84-8.14L474.18-3.11L474.18 0L464.31 0L460.91-3.90L459.23-3.90L459.23-3.90Q458.99-3.65 458.22-2.86L458.22-2.86L458.22-2.86Q457.46-2.07 456.05-1.23L456.05-1.23L456.05-1.23Q454.65-0.39 452.60 0.30L452.60 0.30L452.60 0.30Q450.55 0.99 447.79 0.99L447.79 0.99L447.79 0.99Q444.14 0.99 440.40-0.49L440.40-0.49L440.40-0.49Q436.65-1.97 433.61-5.08L433.61-5.08L433.61-5.08Q430.58-8.19 428.66-12.95L428.66-12.95L428.66-12.95Q426.73-17.70 426.73-24.31ZM437.78-24.31L437.78-24.31L437.78-24.31Q437.78-19.73 438.74-16.47L438.74-16.47L438.74-16.47Q439.71-13.22 441.48-11.12L441.48-11.12L441.48-11.12Q443.26-9.02 445.82-8.06L445.82-8.06L445.82-8.06Q448.38-7.10 451.59-7.10L451.59-7.10L451.59-7.10Q452.82-7.10 454.20-7.50L454.20-7.50L454.20-7.50Q455.58-7.89 456.72-8.43L456.72-8.43L456.72-8.43Q458.05-8.98 459.33-9.76L459.33-9.76L459.33-43.10L459.33-43.10Q458.69-43.50 457.43-43.89L457.43-43.89L457.43-43.89Q456.18-44.29 453.96-44.29L453.96-44.29L453.96-44.29Q446.21-44.29 442.00-39.18L442.00-39.18L442.00-39.18Q437.78-34.08 437.78-24.31ZM489.17-58.93L489.17-58.93L489.17-58.93Q487.79-58.93 486.58-59.43L486.58-59.43L486.58-59.43Q485.37-59.92 484.46-60.76L484.46-60.76L484.46-60.76Q483.55-61.60 483.00-62.71L483.00-62.71L483.00-62.71Q482.46-63.82 482.46-65.10L482.46-65.10L482.46-65.10Q482.46-66.43 483.00-67.56L483.00-67.56L483.00-67.56Q483.55-68.70 484.46-69.54L484.46-69.54L484.46-69.54Q485.37-70.37 486.58-70.84L486.58-70.84L486.58-70.84Q487.79-71.31 489.17-71.31L489.17-71.31L489.17-71.31Q490.55-71.31 491.78-70.84L491.78-70.84L491.78-70.84Q493.02-70.37 493.93-69.54L493.93-69.54L493.93-69.54Q494.84-68.70 495.38-67.56L495.38-67.56L495.38-67.56Q495.93-66.43 495.93-65.10L495.93-65.10L495.93-65.10Q495.93-63.82 495.38-62.71L495.38-62.71L495.38-62.71Q494.84-61.60 493.93-60.76L493.93-60.76L493.93-60.76Q493.02-59.92 491.78-59.43L491.78-59.43L491.78-59.43Q490.55-58.93 489.17-58.93ZM483.50-8.48L483.50-50.40L493.76-50.40L493.76-8.29L496.67-6.21L496.67 0L493.85 0L493.76-0.10L493.76 0L493.76 0Q488.87 0 486.19-1.97L486.19-1.97L486.19-1.97Q483.50-3.95 483.50-8.48L483.50-8.48ZM505.99-25.20L505.99-25.20L505.99-25.20Q505.99-31.71 507.74-36.69L507.74-36.69L507.74-36.69Q509.49-41.67 512.67-45.03L512.67-45.03L512.67-45.03Q515.85-48.38 520.26-50.11L520.26-50.11L520.26-50.11Q524.68-51.83 530.00-51.83L530.00-51.83L530.00-51.83Q535.48-51.83 539.87-50.23L539.87-50.23L539.87-50.23Q544.26-48.63 547.31-45.37L547.31-45.37L547.31-45.37Q550.37-42.12 552.00-37.26L552.00-37.26L552.00-37.26Q553.63-32.40 553.63-25.89L553.63-25.89L553.63-25.89Q553.63-19.38 551.97-14.35L551.97-14.35L551.97-14.35Q550.32-9.32 547.24-5.92L547.24-5.92L547.24-5.92Q544.16-2.52 539.79-0.76L539.79-0.76L539.79-0.76Q535.43 0.99 530.00 0.99L530.00 0.99L530.00 0.99Q524.38 0.99 519.92-0.67L519.92-0.67L519.92-0.67Q515.46-2.32 512.37-5.60L512.37-5.60L512.37-5.60Q509.29-8.88 507.64-13.78L507.64-13.78L507.64-13.78Q505.99-18.69 505.99-25.20ZM530.00-7.15L530.00-7.15L530.00-7.15Q533.26-7.15 535.65-8.56L535.65-8.56L535.65-8.56Q538.04-9.96 539.57-12.45L539.57-12.45L539.57-12.45Q541.10-14.94 541.84-18.37L541.84-18.37L541.84-18.37Q542.58-21.80 542.58-25.89L542.58-25.89L542.58-25.89Q542.58-34.72 539.57-39.35L539.57-39.35L539.57-39.35Q536.56-43.99 530.00-43.99L530.00-43.99L530.00-43.99Q526.70-43.99 524.26-42.58L524.26-42.58L524.26-42.58Q521.82-41.18 520.21-38.66L520.21-38.66L520.21-38.66Q518.61-36.15 517.82-32.70L517.82-32.70L517.82-32.70Q517.03-29.24 517.03-25.20L517.03-25.20L517.03-25.20Q517.03-16.27 520.21-11.71L520.21-11.71L520.21-11.71Q523.40-7.15 530.00-7.15Z" fill="#ffffff"></path></g></g><style>text {
  font-size: 64px;
  font-family: Arial Black;
  dominant-baseline: central;
  text-anchor: middle;
}</style></svg>